<svg version="1.1" viewBox="0.0 0.0 512.0 512.0" fill="none" stroke="none" stroke-linecap="square" stroke-miterlimit="10" xmlns:xlink="http://www.w3.org/1999/xlink" xmlns="http://www.w3.org/2000/svg"><clipPath id="p.0"><path d="m0 0l512.0 0l0 512.0l-512.0 0l0 -512.0z" clip-rule="nonzero"/></clipPath><g clip-path="url(#p.0)"><path fill="#000000" fill-opacity="0.0" d="m0 0l512.0 0l0 512.0l-512.0 0z" fill-rule="evenodd"/><path fill="#000000" fill-opacity="0.0" d="m42.425198 256.0l0 0c0 -117.9541 95.6207 -213.5748 213.5748 -213.5748l0 0c56.643555 0 110.96713 22.501568 151.0202 62.554607c40.05304 40.053047 62.554596 94.37664 62.554596 151.0202l0 0c0 117.9541 -95.6207 213.5748 -213.5748 213.5748l0 0c-117.9541 0 -213.5748 -95.6207 -213.5748 -213.5748z" fill-rule="evenodd"/><path stroke="#bfae78" stroke-width="4.0" stroke-linejoin="round" stroke-linecap="butt" d="m42.425198 256.0l0 0c0 -117.9541 95.6207 -213.5748 213.5748 -213.5748l0 0c56.643555 0 110.96713 22.501568 151.0202 62.554607c40.05304 40.053047 62.554596 94.37664 62.554596 151.0202l0 0c0 117.9541 -95.6207 213.5748 -213.5748 213.5748l0 0c-117.9541 0 -213.5748 -95.6207 -213.5748 -213.5748z" fill-rule="evenodd"/><path fill="#000000" fill-opacity="0.0" d="m340.6929 137.8796l-84.6929 116.74628l84.6929 119.50569z" fill-rule="evenodd"/><path stroke="#bfae78" stroke-width="4.0" stroke-linejoin="round" stroke-linecap="butt" d="m340.6929 137.8796l-84.6929 116.74628l84.6929 119.50569z" fill-rule="evenodd"/><path fill="#000000" fill-opacity="0.0" d="m171.30708 137.8796l84.69292 116.74628l-84.69292 119.50569z" fill-rule="evenodd"/><path stroke="#bfae78" stroke-width="4.0" stroke-linejoin="round" stroke-linecap="butt" d="m171.30708 137.8796l84.69292 116.74628l-84.69292 119.50569z" fill-rule="evenodd"/><path fill="#000000" fill-opacity="0.0" d="m194.64899 137.86844l61.35431 90.14172l61.35434 -90.14172z" fill-rule="evenodd"/><path stroke="#bfae78" stroke-width="4.0" stroke-linejoin="round" stroke-linecap="butt" d="m194.64899 137.86844l61.35431 90.14172l61.35434 -90.14172z" fill-rule="evenodd"/></g></svg>